<svg preserveAspectRatio="none" width="100%" height="100%" overflow="visible" style="display: block;" viewBox="0 0 14.2059 19.5" fill="none" xmlns="http://www.w3.org/2000/svg">
<g id="Group 11">
<path id="Rectangle 17" d="M0.75 7.10294C0.75 4.90712 0.75 3.80921 1.16935 2.96705C1.55714 2.18826 2.18826 1.55714 2.96705 1.16935C3.80921 0.75 4.90712 0.75 7.10294 0.75C9.29876 0.75 10.3967 0.75 11.2388 1.16935C12.0176 1.55714 12.6487 2.18826 13.0365 2.96705C13.4559 3.80921 13.4559 4.90712 13.4559 7.10294V12.3971C13.4559 14.5929 13.4559 15.6908 13.0365 16.533C12.6487 17.3117 12.0176 17.9429 11.2388 18.3307C10.3967 18.75 9.29876 18.75 7.10294 18.75C4.90712 18.75 3.80921 18.75 2.96705 18.3307C2.18826 17.9429 1.55714 17.3117 1.16935 16.533C0.75 15.6908 0.75 14.5929 0.75 12.3971V7.10294Z" stroke="var(--stroke-0, white)" stroke-width="1.5"/>
<path id="Vector 27" d="M4.80443 1.44709L4.45589 0.75H9.75001L9.40146 1.44709C9.11489 2.02024 8.9716 2.30681 8.74453 2.50291C8.62412 2.60689 8.48794 2.69106 8.34109 2.75225C8.06415 2.86765 7.74375 2.86765 7.10295 2.86765C6.46214 2.86765 6.14174 2.86765 5.86481 2.75225C5.71795 2.69106 5.58177 2.60689 5.46136 2.50291C5.23429 2.30681 5.09101 2.02024 4.80443 1.44709L4.80443 1.44709Z" fill="var(--fill-0, white)"/>
<circle id="Ellipse 23" cx="7.10272" cy="16.3674" r="0.794118" fill="var(--fill-0, white)"/>
</g>
</svg>
