<svg width="225" height="290" viewBox="0 0 225 290" fill="none" xmlns="http://www.w3.org/2000/svg">
<path d="M73.1612 240.228C73.1612 240.228 85.7633 241.046 89.1808 235.885H139.269C139.269 235.885 141.761 240.69 149.272 240.263C156.783 239.836 177.645 252.047 177.645 252.047L158.848 266.215L121.612 270.843L74.7988 263.509L56.1804 248.807L73.1612 240.228Z" fill="#E9FF21"/>
<path fill-rule="evenodd" clip-rule="evenodd" d="M73.1612 240.228C73.1612 240.228 85.7633 241.046 89.1808 235.885H139.269C139.269 235.885 141.761 240.69 149.272 240.263C156.783 239.836 177.645 252.047 177.645 252.047L158.848 266.215L121.612 270.843L74.7988 263.509L56.1804 248.807L73.1612 240.228Z" stroke="#015F49" stroke-width="1.5" stroke-linecap="round" stroke-linejoin="round"/>
<path d="M16.4162 77.2905C20.2965 81.064 16.4518 85.0155 20.2965 88.789C24.1768 92.5625 28.0215 88.611 31.8662 92.3845C35.7465 96.1581 31.9018 100.11 35.7821 103.883" stroke="#015F49" stroke-width="3" stroke-linecap="round" stroke-linejoin="round"/>
<path d="M38.3452 149.343C34.1801 152.796 30.6558 148.56 26.5263 152.013C22.3612 155.466 25.9211 159.702 21.756 163.155C17.5909 166.609 14.0666 162.372 9.93713 165.825" stroke="#015F49" stroke-width="3" stroke-linecap="round" stroke-linejoin="round"/>
<path d="M66.7177 208.295C61.5202 206.871 62.9442 201.567 57.7467 200.143C52.5493 198.719 51.0897 204.059 45.8922 202.635C40.6948 201.211 42.1187 195.907 36.9213 194.483" stroke="#015F49" stroke-width="3" stroke-linecap="round" stroke-linejoin="round"/>
<path d="M1.50018 247.988C4.45491 243.467 9.04719 246.457 12.0019 241.936C14.9566 237.415 10.3288 234.389 13.2479 229.868C16.2026 225.347 20.7949 228.337 23.7496 223.816" stroke="#015F49" stroke-width="3" stroke-linecap="round" stroke-linejoin="round"/>
<path d="M198.007 202.457C194.02 198.826 197.722 194.732 193.7 191.101C189.713 187.47 186.01 191.564 181.988 187.933C178.001 184.301 181.703 180.208 177.68 176.576" stroke="#015F49" stroke-width="3" stroke-linecap="round" stroke-linejoin="round"/>
<path d="M181.56 215.985C176.648 218.263 174.334 213.244 169.457 215.522C164.544 217.8 166.858 222.784 161.945 225.062C157.033 227.341 154.719 222.321 149.842 224.6" stroke="#015F49" stroke-width="3" stroke-linecap="round" stroke-linejoin="round"/>
<path d="M222.82 266.428C218.334 269.419 215.273 264.862 210.787 267.852C206.302 270.843 209.363 275.435 204.878 278.425C200.392 281.416 197.331 276.859 192.845 279.849" stroke="#015F49" stroke-width="3" stroke-linecap="round" stroke-linejoin="round"/>
<path d="M67.6789 8.90454C63.3358 12.1085 60.0607 7.69417 55.7176 10.8981C51.3745 14.102 54.6496 18.5519 50.3065 21.7558C45.9634 24.9597 42.6883 20.5454 38.3452 23.7494" stroke="#015F49" stroke-width="3" stroke-linecap="round" stroke-linejoin="round"/>
<path fill-rule="evenodd" clip-rule="evenodd" d="M37.7757 52.8696C37.7757 53.9375 36.8857 54.8275 35.8178 54.8275C34.7498 54.8275 33.8598 53.9375 33.8598 52.8696C33.8598 51.8016 34.7498 50.9116 35.8178 50.9116C36.8857 50.9116 37.7757 51.766 37.7757 52.8696Z" stroke="#015F49" stroke-width="1.5" stroke-linecap="round" stroke-linejoin="round"/>
<path fill-rule="evenodd" clip-rule="evenodd" d="M10.6909 125.859C11.6899 125.445 12.1643 124.3 11.7505 123.301C11.3367 122.302 10.1913 121.827 9.19225 122.241C8.1932 122.655 7.71878 123.8 8.13261 124.799C8.54644 125.798 9.69181 126.273 10.6909 125.859Z" stroke="#015F49" stroke-width="1.5" stroke-linecap="round" stroke-linejoin="round"/>
<path d="M200.57 59.7046C197.295 64.0121 201.674 67.3584 198.399 71.6303C195.124 75.9378 190.745 72.5915 187.47 76.8634C184.195 81.1708 188.574 84.5172 185.298 88.7891" stroke="#015F49" stroke-width="3" stroke-linecap="round" stroke-linejoin="round"/>
<path d="M183.732 136.492C189.107 136.1 188.716 130.618 194.127 130.226C199.502 129.835 199.894 135.353 205.305 134.961C210.681 134.569 210.289 129.087 215.7 128.696" stroke="#015F49" stroke-width="3" stroke-linecap="round" stroke-linejoin="round"/>
<path d="M148.382 1.5C152.725 4.70392 156 0.289631 160.343 3.49355C164.686 6.69747 161.411 11.1474 165.754 14.3513C170.098 17.5552 173.373 13.1409 177.716 16.3448" stroke="#015F49" stroke-width="3" stroke-linecap="round" stroke-linejoin="round"/>
<path fill-rule="evenodd" clip-rule="evenodd" d="M180.564 42.3679C180.564 43.4358 181.454 44.3258 182.522 44.3258C183.59 44.3258 184.48 43.4358 184.48 42.3679C184.48 41.2999 183.59 40.4099 182.522 40.4099C181.418 40.4099 180.564 41.2643 180.564 42.3679Z" stroke="#015F49" stroke-width="1.5" stroke-linecap="round" stroke-linejoin="round"/>
<path fill-rule="evenodd" clip-rule="evenodd" d="M197.758 106.589C197.758 107.657 198.648 108.547 199.716 108.547C200.784 108.547 201.674 107.657 201.674 106.589C201.674 105.521 200.784 104.631 199.716 104.631C198.612 104.631 197.758 105.521 197.758 106.589Z" stroke="#015F49" stroke-width="1.5" stroke-linecap="round" stroke-linejoin="round"/>
<path fill-rule="evenodd" clip-rule="evenodd" d="M90.3555 102.673C90.3555 103.741 89.4656 104.631 88.3976 104.631C87.3296 104.631 86.4396 103.741 86.4396 102.673C86.4396 101.605 87.3296 100.715 88.3976 100.715C89.4656 100.679 90.3555 101.569 90.3555 102.673Z" stroke="#015F49" stroke-width="1.5" stroke-linecap="round" stroke-linejoin="round"/>
<path fill-rule="evenodd" clip-rule="evenodd" d="M140.845 94.3129C141.844 93.8991 142.319 92.7537 141.905 91.7547C141.491 90.7556 140.346 90.2812 139.347 90.695C138.348 91.1089 137.873 92.2542 138.287 93.2533C138.701 94.2523 139.846 94.7268 140.845 94.3129Z" stroke="#015F49" stroke-width="1.5" stroke-linecap="round" stroke-linejoin="round"/>
<path fill-rule="evenodd" clip-rule="evenodd" d="M77.3975 223.852C77.3975 224.92 76.5075 225.81 75.4395 225.81C74.3715 225.81 73.4816 224.92 73.4816 223.852C73.4816 222.784 74.3715 221.894 75.4395 221.894C76.5075 221.858 77.3975 222.748 77.3975 223.852Z" stroke="#015F49" stroke-width="1.5" stroke-linecap="round" stroke-linejoin="round"/>
<path fill-rule="evenodd" clip-rule="evenodd" d="M10.6882 203.183C11.6873 202.769 12.1617 201.624 11.7479 200.625C11.3341 199.626 10.1887 199.152 9.18963 199.565C8.19057 199.979 7.71615 201.125 8.12998 202.124C8.54382 203.123 9.68919 203.597 10.6882 203.183Z" stroke="#015F49" stroke-width="1.5" stroke-linecap="round" stroke-linejoin="round"/>
<path fill-rule="evenodd" clip-rule="evenodd" d="M158.326 193.271C159.326 192.857 159.8 191.711 159.386 190.712C158.972 189.713 157.827 189.239 156.828 189.653C155.829 190.067 155.354 191.212 155.768 192.211C156.182 193.21 157.327 193.685 158.326 193.271Z" stroke="#015F49" stroke-width="1.5" stroke-linecap="round" stroke-linejoin="round"/>
<path fill-rule="evenodd" clip-rule="evenodd" d="M203.632 165.754C203.632 166.822 202.742 167.712 201.674 167.712C200.606 167.712 199.716 166.822 199.716 165.754C199.716 164.686 200.606 163.796 201.674 163.796C202.742 163.796 203.632 164.686 203.632 165.754Z" stroke="#015F49" stroke-width="1.5" stroke-linecap="round" stroke-linejoin="round"/>
<path fill-rule="evenodd" clip-rule="evenodd" d="M198.543 229.05C199.542 228.636 200.016 227.49 199.602 226.491C199.189 225.492 198.043 225.018 197.044 225.432C196.045 225.845 195.571 226.991 195.985 227.99C196.398 228.989 197.544 229.463 198.543 229.05Z" stroke="#015F49" stroke-width="1.5" stroke-linecap="round" stroke-linejoin="round"/>
<path fill-rule="evenodd" clip-rule="evenodd" d="M26.2388 284.739C27.3149 284.633 28.1008 283.674 27.9942 282.598C27.8877 281.522 26.929 280.736 25.853 280.842C24.7769 280.949 23.991 281.908 24.0975 282.984C24.2041 284.06 25.1628 284.846 26.2388 284.739Z" stroke="#015F49" stroke-width="1.5" stroke-linecap="round" stroke-linejoin="round"/>
<path d="M71.4524 106.304C71.4524 106.304 73.3392 93.2032 71.3457 89.4297C69.3521 85.6206 62.1967 84.3747 61.0575 79.4264C60.1319 75.3681 61.0931 69.7434 59.8827 71.8082C58.174 74.7629 57.5332 82.4167 60.2031 86.297C62.8375 90.1417 66.3618 90.7469 66.7178 93.1676C67.0738 95.5884 63.4782 113.637 63.4782 113.637L71.4524 106.304Z" fill="#E9FF21"/>
<path fill-rule="evenodd" clip-rule="evenodd" d="M71.4524 106.304C71.4524 106.304 73.3392 93.2032 71.3457 89.4297C69.3521 85.6206 62.1967 84.3747 61.0575 79.4264C60.1319 75.3681 61.0931 69.7434 59.8827 71.8082C58.174 74.7629 57.5332 82.4167 60.2031 86.297C62.8375 90.1417 66.3618 90.7469 66.7178 93.1676C67.0738 95.5884 63.4782 113.637 63.4782 113.637L71.4524 106.304Z" stroke="#015F49" stroke-width="1.5" stroke-linecap="round" stroke-linejoin="round"/>
<path d="M156.926 106.304C156.926 106.304 155.039 93.2032 157.033 89.4297C159.026 85.6206 166.182 84.3747 167.321 79.4264C168.246 75.3681 167.285 69.7434 168.496 71.8082C170.204 74.7629 170.845 82.4167 168.175 86.297C165.541 90.1417 162.017 90.7469 161.661 93.1676C161.305 95.5884 164.9 113.637 164.9 113.637L156.926 106.304Z" fill="#E9FF21"/>
<path fill-rule="evenodd" clip-rule="evenodd" d="M156.926 106.304C156.926 106.304 155.039 93.2032 157.033 89.4297C159.026 85.6206 166.182 84.3747 167.321 79.4264C168.246 75.3681 167.285 69.7434 168.496 71.8082C170.204 74.7629 170.845 82.4167 168.175 86.297C165.541 90.1417 162.017 90.7469 161.661 93.1676C161.305 95.5884 164.9 113.637 164.9 113.637L156.926 106.304Z" stroke="#015F49" stroke-width="1.5" stroke-linecap="round" stroke-linejoin="round"/>
<path d="M105.094 120.899C105.734 125.955 110.327 129.55 115.382 128.909C120.437 128.268 124.032 123.676 123.392 118.621C122.751 113.566 118.158 109.971 113.103 110.611C108.048 111.216 104.453 115.844 105.094 120.899Z" fill="#0AD67E"/>
<path fill-rule="evenodd" clip-rule="evenodd" d="M105.094 120.899C105.734 125.955 110.327 129.55 115.382 128.909C120.437 128.268 124.032 123.676 123.392 118.621C122.751 113.566 118.158 109.971 113.103 110.611C108.048 111.216 104.453 115.844 105.094 120.899Z" stroke="#0AD67E" stroke-width="1.5" stroke-linecap="round" stroke-linejoin="round"/>
<path d="M126.275 139.055C125.456 138.735 124.673 138.735 123.961 138.877C122.288 135.175 118.55 132.576 114.207 132.576C109.864 132.576 106.126 135.175 104.453 138.877C103.741 138.735 102.958 138.735 102.174 139.055C100.75 139.589 99.7181 140.871 99.5401 142.366C99.2553 144.858 101.178 146.958 103.598 146.958C103.776 146.958 103.99 146.958 104.168 146.922C105.094 149.521 107.016 151.621 109.472 152.867L108.511 161.269L114.777 176.932L119.974 161.269L119.013 152.867C121.469 151.657 123.356 149.521 124.317 146.922C124.495 146.958 124.673 146.958 124.887 146.958C127.307 146.958 129.23 144.858 128.945 142.401C128.731 140.871 127.699 139.589 126.275 139.055Z" fill="#E9FF21"/>
<path fill-rule="evenodd" clip-rule="evenodd" d="M126.275 139.055C125.456 138.735 124.673 138.735 123.961 138.877C122.288 135.175 118.55 132.576 114.207 132.576C109.864 132.576 106.126 135.175 104.453 138.877C103.741 138.735 102.958 138.735 102.174 139.055C100.75 139.589 99.7181 140.871 99.5401 142.366C99.2553 144.858 101.178 146.958 103.598 146.958C103.776 146.958 103.99 146.958 104.168 146.922C105.094 149.521 107.016 151.621 109.472 152.867L108.511 161.269L114.777 176.932L119.974 161.269L119.013 152.867C121.469 151.657 123.356 149.521 124.317 146.922C124.495 146.958 124.673 146.958 124.887 146.958C127.307 146.958 129.23 144.858 128.945 142.401C128.731 140.871 127.699 139.589 126.275 139.055Z" stroke="#015F49" stroke-width="1.5" stroke-linecap="round" stroke-linejoin="round"/>
<path d="M116.414 153.757C113.495 156.499 109.116 156.071 109.116 156.071L109.508 152.903C109.543 152.903 109.543 152.939 109.579 152.939C110.967 153.615 112.569 154.007 114.243 154.007C114.955 153.971 115.702 153.9 116.414 153.757Z" fill="#015F49"/>
<path fill-rule="evenodd" clip-rule="evenodd" d="M116.414 153.757C113.495 156.499 109.116 156.071 109.116 156.071L109.508 152.903C109.543 152.903 109.543 152.939 109.579 152.939V152.939C110.967 153.615 112.569 154.007 114.243 154.007C114.955 153.971 115.702 153.9 116.414 153.757Z" stroke="#015F49" stroke-width="1.5" stroke-linecap="round" stroke-linejoin="round"/>
<path d="M123.997 138.877C122.324 135.175 118.586 132.576 114.243 132.576C109.899 132.576 106.162 135.175 104.488 138.877C104.488 138.877 103.598 141.583 104.061 143.612C104.524 145.676 114.243 136.456 114.243 136.456C114.243 136.456 123.961 145.641 124.424 143.612C124.851 141.583 123.997 138.877 123.997 138.877Z" fill="#015F49"/>
<path fill-rule="evenodd" clip-rule="evenodd" d="M123.997 138.877C122.324 135.175 118.586 132.576 114.243 132.576C109.899 132.576 106.162 135.175 104.488 138.877C104.488 138.877 103.598 141.583 104.061 143.612C104.524 145.676 114.243 136.456 114.243 136.456C114.243 136.456 123.961 145.641 124.424 143.612C124.851 141.583 123.997 138.877 123.997 138.877Z" stroke="#015F49" stroke-width="1.5" stroke-linecap="round" stroke-linejoin="round"/>
<path d="M169.955 108.119L153.793 96.6207C153.366 96.3004 152.761 96.6207 152.761 97.1547C152.654 112.249 152.369 122.715 151.586 130.475C149.592 150.197 134.427 156.57 131.081 158.065C126.56 160.094 122.537 160.913 119.938 161.269L114.456 176.185L108.476 161.269C105.877 160.913 101.854 160.094 97.333 158.065C93.9867 156.57 78.8215 150.197 76.8279 130.475C76.0447 122.715 75.7599 112.249 75.6531 97.1547C75.6531 96.6207 75.048 96.336 74.6208 96.6207L58.4588 108.119C58.174 108.333 58.0316 108.618 57.996 108.974C57.9248 112.89 57.6756 137.311 61.2355 151.515C64.119 163.049 74.6564 176.683 83.0222 185.547C84.6953 187.327 85.7989 189.534 86.2261 191.92C87.2584 197.829 89.1096 209.897 89.1096 221.752V235.884L103.598 239.017C110.576 240.512 117.767 240.512 124.744 239.017L139.233 235.884V221.752C139.233 209.897 141.084 197.829 142.117 191.92C142.544 189.534 143.647 187.292 145.321 185.547C153.686 176.683 164.224 163.084 167.107 151.515C170.667 137.311 170.418 112.89 170.347 108.974C170.382 108.618 170.24 108.297 169.955 108.119Z" fill="#015F49"/>
<path fill-rule="evenodd" clip-rule="evenodd" d="M169.955 108.119L153.793 96.6207C153.366 96.3004 152.761 96.6207 152.761 97.1547C152.654 112.249 152.369 122.715 151.586 130.475C149.592 150.197 134.427 156.57 131.081 158.065C126.56 160.094 122.537 160.913 119.938 161.269L114.456 176.185L108.476 161.269C105.877 160.913 101.854 160.094 97.333 158.065C93.9867 156.57 78.8215 150.197 76.8279 130.475C76.0447 122.715 75.7599 112.249 75.6531 97.1547C75.6531 96.6207 75.048 96.336 74.6208 96.6207L58.4588 108.119C58.174 108.333 58.0316 108.618 57.996 108.974C57.9248 112.89 57.6756 137.311 61.2355 151.515C64.119 163.049 74.6564 176.683 83.0222 185.547C84.6953 187.327 85.7989 189.534 86.2261 191.92C87.2584 197.829 89.1096 209.897 89.1096 221.752V235.884L103.598 239.017C110.576 240.512 117.767 240.512 124.744 239.017L139.233 235.884V221.752C139.233 209.897 141.084 197.829 142.117 191.92C142.544 189.534 143.647 187.292 145.321 185.547C153.686 176.683 164.224 163.084 167.107 151.515C170.667 137.311 170.418 112.89 170.347 108.974C170.382 108.618 170.24 108.297 169.955 108.119Z" stroke="#015F49" stroke-width="1.5" stroke-linecap="round" stroke-linejoin="round"/>
<path d="M131.686 269.312C131.686 269.312 149.414 276.467 158.207 275.933C167 275.399 175.473 272.445 178.463 273.335C181.454 274.189 177.182 284.228 172.233 286.756C167.25 289.283 156.534 288.678 150.198 287.254C143.861 285.83 126.631 282.59 126.631 282.59L131.686 269.312Z" fill="#E9FF21"/>
<path fill-rule="evenodd" clip-rule="evenodd" d="M131.686 269.312C131.686 269.312 149.414 276.467 158.207 275.933C167 275.399 175.473 272.445 178.463 273.335C181.454 274.189 177.182 284.228 172.233 286.756C167.25 289.283 156.534 288.678 150.198 287.254C143.861 285.83 126.631 282.59 126.631 282.59L131.686 269.312Z" stroke="#015F49" stroke-width="1.5" stroke-linecap="round" stroke-linejoin="round"/>
<path d="M145.392 286.222C147.101 286.578 148.667 286.898 149.877 287.147C149.984 287.183 150.126 287.218 150.233 287.218C156.57 288.642 167.285 289.248 172.269 286.72C177.253 284.193 181.525 274.154 178.499 273.299C175.509 272.409 167.036 275.364 158.243 275.898C156.392 276.005 154.185 275.791 151.8 275.364C150.34 275.115 148.845 274.759 147.314 274.403L145.392 286.222Z" fill="#015F49"/>
<path fill-rule="evenodd" clip-rule="evenodd" d="M145.392 286.222C147.101 286.578 148.667 286.898 149.877 287.147C149.984 287.183 150.126 287.218 150.233 287.218C156.57 288.642 167.285 289.248 172.269 286.72C177.253 284.193 181.525 274.154 178.499 273.299C175.509 272.409 167.036 275.364 158.243 275.898C156.392 276.005 154.185 275.791 151.8 275.364C150.34 275.115 148.845 274.759 147.314 274.403L145.392 286.222Z" stroke="#015F49" stroke-width="1.5" stroke-linecap="round" stroke-linejoin="round"/>
<rect x="145.192" y="287.539" width="14.2747" height="4.55651" transform="rotate(-80.694 145.192 287.539)" fill="#E9FF21"/>
<rect x="145.192" y="287.539" width="14.2747" height="4.55651" transform="rotate(-80.694 145.192 287.539)" stroke="#015F49" stroke-width="1.5" stroke-linecap="round" stroke-linejoin="round"/>
<path d="M65.5785 249.483C75.9379 250.551 134.356 266.072 144.359 268.742C145.071 268.92 145.392 269.775 144.965 270.38L132.932 288.037C132.718 288.322 132.398 288.5 132.042 288.5C119.511 288.464 101.462 287.503 46.8178 271.839C15.3482 262.833 27.2383 243.075 42.7239 241.153C53.724 239.765 73.4103 240.263 73.4103 240.263" fill="#E9FF21"/>
<path d="M65.5785 249.483C75.9379 250.551 134.356 266.072 144.359 268.742C145.071 268.92 145.392 269.775 144.965 270.38L132.932 288.037C132.718 288.322 132.398 288.5 132.042 288.5C119.511 288.464 101.462 287.503 46.8178 271.839C15.3482 262.833 27.2383 243.075 42.7239 241.153C53.724 239.765 73.4103 240.263 73.4103 240.263" stroke="#015F49" stroke-width="1.5" stroke-linecap="round" stroke-linejoin="round"/>
<path d="M99.6114 269.312C99.6114 269.312 81.883 276.467 73.09 275.933C64.2971 275.399 55.8245 272.445 52.8341 273.335C49.8438 274.189 54.1157 284.228 59.064 286.756C64.0479 289.283 74.7632 288.678 81.0998 287.254C87.4365 285.83 104.666 282.59 104.666 282.59L99.6114 269.312Z" fill="#E9FF21"/>
<path fill-rule="evenodd" clip-rule="evenodd" d="M99.6114 269.312C99.6114 269.312 81.883 276.467 73.09 275.933C64.2971 275.399 55.8245 272.445 52.8341 273.335C49.8438 274.189 54.1157 284.228 59.064 286.756C64.0479 289.283 74.7632 288.678 81.0998 287.254C87.4365 285.83 104.666 282.59 104.666 282.59L99.6114 269.312Z" stroke="#015F49" stroke-width="1.5" stroke-linecap="round" stroke-linejoin="round"/>
<path d="M85.9057 286.222C84.1969 286.578 82.6306 286.898 81.4202 287.147C81.3134 287.183 81.171 287.218 81.0642 287.218C74.7276 288.642 64.0122 289.248 59.0284 286.72C54.0445 284.193 49.7726 274.154 52.7985 273.299C55.7889 272.409 64.2614 275.364 73.0544 275.898C74.9056 276.005 77.1127 275.791 79.4979 275.364C80.9574 275.115 82.4526 274.759 83.9833 274.403L85.9057 286.222Z" fill="#015F49"/>
<path fill-rule="evenodd" clip-rule="evenodd" d="M85.9057 286.222C84.1969 286.578 82.6306 286.898 81.4202 287.147C81.3134 287.183 81.171 287.218 81.0642 287.218C74.7276 288.642 64.0122 289.248 59.0284 286.72C54.0445 284.193 49.7726 274.154 52.7985 273.299C55.7889 272.409 64.2614 275.364 73.0544 275.898C74.9056 276.005 77.1127 275.791 79.4979 275.364C80.9574 275.115 82.4526 274.759 83.9833 274.403L85.9057 286.222Z" stroke="#015F49" stroke-width="1.5" stroke-linecap="round" stroke-linejoin="round"/>
<rect x="79.2327" y="274.072" width="4.55651" height="14.2747" transform="rotate(-9.30595 79.2327 274.072)" fill="#E9FF21"/>
<rect x="79.2327" y="274.072" width="4.55651" height="14.2747" transform="rotate(-9.30595 79.2327 274.072)" stroke="#015F49" stroke-width="1.5" stroke-linecap="round" stroke-linejoin="round"/>
<path d="M147.741 240.299C147.741 240.299 174.761 239.765 185.761 241.153C201.211 243.111 213.101 262.833 181.667 271.84C128.019 287.183 109.65 288.429 97.155 288.5C96.3362 288.5 95.5887 288.108 95.1615 287.432L83.5206 270.38C83.0934 269.775 83.4138 268.92 84.1257 268.742C94.1291 266.072 152.547 250.516 162.907 249.483" fill="#E9FF21"/>
<path d="M147.741 240.299C147.741 240.299 174.761 239.765 185.761 241.153C201.211 243.111 213.101 262.833 181.667 271.84C128.019 287.183 109.65 288.429 97.155 288.5C96.3362 288.5 95.5887 288.108 95.1615 287.432L83.5206 270.38C83.0934 269.775 83.4138 268.92 84.1257 268.742C94.1291 266.072 152.547 250.516 162.907 249.483" stroke="#015F49" stroke-width="1.5" stroke-linecap="round" stroke-linejoin="round"/>
<path d="M93.5595 266.215L107.087 288.108" stroke="#015F49" stroke-width="1.5" stroke-linecap="round" stroke-linejoin="round"/>
<path d="M108.475 161.269L102.495 159.952C102.495 159.952 100.537 164.615 105.877 168.317C105.877 168.317 104.168 171.771 105.699 174.654C108.084 179.211 114.492 176.149 114.492 176.149L108.475 161.269Z" fill="#E9FF21"/>
<path fill-rule="evenodd" clip-rule="evenodd" d="M108.475 161.269L102.495 159.952C102.495 159.952 100.537 164.615 105.877 168.317C105.877 168.317 104.168 171.771 105.699 174.654C108.084 179.211 114.492 176.149 114.492 176.149L108.475 161.269Z" stroke="#015F49" stroke-width="1.5" stroke-linecap="round" stroke-linejoin="round"/>
<path d="M120.188 161.269L126.168 159.952C126.168 159.952 128.126 164.615 122.786 168.317C122.786 168.317 124.495 171.771 122.964 174.654C120.579 179.211 114.171 176.149 114.171 176.149L120.188 161.269Z" fill="#E9FF21"/>
<path fill-rule="evenodd" clip-rule="evenodd" d="M120.188 161.269L126.168 159.952C126.168 159.952 128.126 164.615 122.786 168.317C122.786 168.317 124.495 171.771 122.964 174.654C120.579 179.211 114.171 176.149 114.171 176.149L120.188 161.269Z" stroke="#015F49" stroke-width="1.5" stroke-linecap="round" stroke-linejoin="round"/>
<path d="M115.382 185.263C115.382 185.903 114.848 186.437 114.207 186.437C113.566 186.437 113.032 185.903 113.032 185.263C113.032 184.622 113.566 184.088 114.207 184.088C114.883 184.088 115.382 184.622 115.382 185.263Z" fill="#E9FF21"/>
<path d="M115.382 196.619C115.382 197.259 114.848 197.793 114.207 197.793C113.566 197.793 113.032 197.259 113.032 196.619C113.032 195.978 113.566 195.444 114.207 195.444C114.883 195.444 115.382 195.978 115.382 196.619Z" fill="#E9FF21"/>
<path d="M115.382 207.975C115.382 208.616 114.848 209.15 114.207 209.15C113.566 209.15 113.032 208.616 113.032 207.975C113.032 207.334 113.566 206.8 114.207 206.8C114.883 206.8 115.382 207.334 115.382 207.975Z" fill="#E9FF21"/>
<path d="M115.382 219.331C115.382 219.972 114.848 220.506 114.207 220.506C113.566 220.506 113.032 219.972 113.032 219.331C113.032 218.69 113.566 218.156 114.207 218.156C114.883 218.156 115.382 218.655 115.382 219.331Z" fill="#E9FF21"/>
<path d="M115.382 230.651C115.382 231.292 114.848 231.826 114.207 231.826C113.566 231.826 113.032 231.292 113.032 230.651C113.032 230.011 113.566 229.477 114.207 229.477C114.883 229.477 115.382 230.011 115.382 230.651Z" fill="#E9FF21"/>
<path d="M120.437 10.9693C120.437 14.4225 117.66 17.1992 114.207 17.1992C110.754 17.1992 107.977 14.4225 107.977 10.9693C107.977 7.51623 110.754 4.7395 114.207 4.7395C117.66 4.7395 120.437 7.51623 120.437 10.9693Z" fill="#0AD67E"/>
<path d="M120.437 10.9693C120.437 14.4225 117.66 17.1992 114.207 17.1992C110.754 17.1992 107.977 14.4225 107.977 10.9693C107.977 7.51623 110.754 4.7395 114.207 4.7395C117.66 4.7395 120.437 7.51623 120.437 10.9693" stroke="#0AD67E" stroke-width="1.5"/>
<path fill-rule="evenodd" clip-rule="evenodd" d="M114.207 17.1992C117.648 17.1992 120.437 14.41 120.437 10.9693C120.437 7.5287 117.648 4.7395 114.207 4.7395C110.766 4.7395 107.977 7.5287 107.977 10.9693C107.977 14.41 110.766 17.1992 114.207 17.1992Z" stroke="#0AD67E" stroke-width="1.5" stroke-linecap="round" stroke-linejoin="round"/>
<path d="M119.013 77.6821C119.013 80.352 116.877 82.488 114.207 82.488C111.537 82.488 109.401 80.352 109.401 77.6821C109.401 75.0122 111.537 72.8762 114.207 72.8762C116.877 72.8762 119.013 75.0478 119.013 77.6821Z" fill="#0AD67E"/>
<path d="M119.013 77.6821C119.013 80.352 116.877 82.488 114.207 82.488C111.537 82.488 109.401 80.352 109.401 77.6821C109.401 75.0122 111.537 72.8762 114.207 72.8762C116.877 72.8762 119.013 75.0478 119.013 77.6821" stroke="#0AD67E" stroke-width="1.5"/>
<path fill-rule="evenodd" clip-rule="evenodd" d="M114.207 82.488C116.861 82.488 119.013 80.3363 119.013 77.6821C119.013 75.0279 116.861 72.8762 114.207 72.8762C111.553 72.8762 109.401 75.0279 109.401 77.6821C109.401 80.3363 111.553 82.488 114.207 82.488Z" stroke="#0AD67E" stroke-width="1.5" stroke-linecap="round" stroke-linejoin="round"/>
<path d="M142.223 25.1378C139.803 27.5586 135.851 27.5586 133.43 25.1378C131.01 22.7171 131.01 18.7656 133.43 16.3449C135.851 13.9241 139.803 13.9241 142.223 16.3449C144.644 18.7656 144.644 22.7171 142.223 25.1378Z" fill="#0AD67E"/>
<path fill-rule="evenodd" clip-rule="evenodd" d="M137.809 26.989C141.25 26.989 144.039 24.1998 144.039 20.7591C144.039 17.3185 141.25 14.5293 137.809 14.5293C134.368 14.5293 131.579 17.3185 131.579 20.7591C131.579 24.1998 134.368 26.989 137.809 26.989Z" stroke="#0AD67E" stroke-width="1.5" stroke-linecap="round" stroke-linejoin="round"/>
<path d="M94.0222 71.31C92.1355 73.1967 89.1096 73.1967 87.2228 71.31C85.3361 69.4232 85.3361 66.3973 87.2228 64.5105C89.1096 62.6238 92.1355 62.6238 94.0222 64.5105C95.909 66.3973 95.909 69.4588 94.0222 71.31Z" fill="#0AD67E"/>
<path d="M94.0222 71.31C92.1355 73.1967 89.1096 73.1967 87.2228 71.31C85.3361 69.4232 85.3361 66.3973 87.2228 64.5105C89.1096 62.6238 92.1355 62.6238 94.0222 64.5105C95.909 66.3973 95.909 69.4588 94.0222 71.31" stroke="#0AD67E" stroke-width="1.5"/>
<path fill-rule="evenodd" clip-rule="evenodd" d="M94.0222 71.31C92.1355 73.1967 89.1096 73.1967 87.2228 71.31C85.3361 69.4232 85.3361 66.3973 87.2228 64.5105C89.1096 62.6238 92.1355 62.6238 94.0222 64.5105C95.909 66.3973 95.909 69.4588 94.0222 71.31Z" stroke="#0AD67E" stroke-width="1.5" stroke-linecap="round" stroke-linejoin="round"/>
<path d="M147.563 50.5556C144.11 50.5556 141.333 47.7789 141.333 44.3258C141.333 40.8727 144.11 38.0959 147.563 38.0959C151.016 38.0959 153.793 40.8727 153.793 44.3258C153.793 47.7789 151.016 50.5556 147.563 50.5556Z" fill="#0AD67E"/>
<path fill-rule="evenodd" clip-rule="evenodd" d="M147.563 50.5556C151.004 50.5556 153.793 47.7664 153.793 44.3258C153.793 40.8851 151.004 38.0959 147.563 38.0959C144.123 38.0959 141.333 40.8851 141.333 44.3258C141.333 47.7664 144.123 50.5556 147.563 50.5556Z" stroke="#0AD67E" stroke-width="1.5" stroke-linecap="round" stroke-linejoin="round"/>
<path d="M80.8506 47.8857C78.8927 47.8857 77.2907 46.2837 77.2907 44.3258C77.2907 42.3678 78.8927 40.7659 80.8506 40.7659C82.8086 40.7659 84.4105 42.3678 84.4105 44.3258C84.4105 46.2837 82.8086 47.8857 80.8506 47.8857Z" fill="#015F49"/>
<path fill-rule="evenodd" clip-rule="evenodd" d="M80.8506 47.8857C82.8167 47.8857 84.4105 46.2919 84.4105 44.3258C84.4105 42.3597 82.8167 40.7659 80.8506 40.7659C78.8845 40.7659 77.2907 42.3597 77.2907 44.3258C77.2907 46.2919 78.8845 47.8857 80.8506 47.8857Z" fill="#0AD67E" stroke="#0AD67E" stroke-width="1.5" stroke-linecap="round" stroke-linejoin="round"/>
<path d="M133.395 72.3422C130.974 69.9214 130.974 65.9699 133.395 63.5492C135.816 61.1285 139.767 61.1285 142.188 63.5492C144.609 65.9699 144.609 69.9214 142.188 72.3422C139.767 74.7629 135.851 74.7629 133.395 72.3422Z" fill="#015F49"/>
<path fill-rule="evenodd" clip-rule="evenodd" d="M137.809 74.1577C141.25 74.1577 144.039 71.3685 144.039 67.9278C144.039 64.4872 141.25 61.698 137.809 61.698C134.368 61.698 131.579 64.4872 131.579 67.9278C131.579 71.3685 134.368 74.1577 137.809 74.1577Z" fill="#0AD67E" stroke="#0AD67E" stroke-width="1.5" stroke-linecap="round" stroke-linejoin="round"/>
<path d="M88.1128 23.2509C86.7244 21.8626 86.7244 19.6198 88.1128 18.2315C89.5012 16.8431 91.7439 16.8431 93.1323 18.2315C94.5206 19.6198 94.5206 21.8626 93.1323 23.2509C91.7439 24.6393 89.5012 24.6393 88.1128 23.2509Z" fill="#015F49"/>
<path fill-rule="evenodd" clip-rule="evenodd" d="M88.1128 23.2509C86.7244 21.8626 86.7244 19.6198 88.1128 18.2315C89.5012 16.8431 91.7439 16.8431 93.1323 18.2315C94.5206 19.6198 94.5206 21.8626 93.1323 23.2509C91.7439 24.6393 89.5012 24.6393 88.1128 23.2509Z" fill="#0AD67E" stroke="#0AD67E" stroke-width="1.5" stroke-linecap="round" stroke-linejoin="round"/>
</svg>
