<svg preserveAspectRatio="none" width="100%" height="100%" overflow="visible" style="display: block;" viewBox="0 0 46.5238 23.0002" fill="none" xmlns="http://www.w3.org/2000/svg">
<g id="Group">
<path id="Vector" d="M16.1746 23.0002C15.4026 23.0002 14.6705 22.6435 14.1969 22.0302L0.523223 4.36352C-0.322212 3.27185 -0.122109 1.70185 0.971788 0.856853C2.06402 0.0118527 3.63649 0.211853 4.48026 1.30519L16.0295 16.2269L25.2693 2.44185C26.038 1.29519 27.5922 0.98852 28.7394 1.75685C29.8867 2.52519 30.1935 4.07852 29.4248 5.22519L18.2524 21.8919C17.8055 22.5602 17.0634 22.9719 16.2597 22.9985C16.2313 22.9985 16.203 22.9985 16.1746 22.9985V23.0002Z" fill="var(--fill-0, #0AD67E)"/>
<path id="Vector_2" d="M31.0156 23.0002C30.2152 23.0002 29.4614 22.6169 28.9912 21.9685L21.4873 11.6352C20.6753 10.5185 20.9237 8.95519 22.0426 8.14353C23.1599 7.33186 24.724 7.5802 25.5361 8.69853L31.0106 16.2369L41.9946 1.03686C42.8033 -0.0831377 44.3675 -0.334805 45.4864 0.473528C46.6069 1.28186 46.8587 2.8452 46.05 3.96353L33.0433 21.9635C32.5731 22.6135 31.821 22.9985 31.0189 23.0002H31.0156Z" fill="var(--fill-0, #0AD67E)"/>
</g>
</svg>
