<svg preserveAspectRatio="none" width="100%" height="100%" overflow="visible" style="display: block;" viewBox="0 0 46.8584 25.6667" fill="none" xmlns="http://www.w3.org/2000/svg">
<g id="Group">
<path id="Vector" d="M2.50295 25.6667C1.74256 25.6667 0.992177 25.3217 0.501925 24.6684C-0.328503 23.565 -0.105054 21.9967 0.998847 21.1684L28.513 0.501698C29.6152 -0.326635 31.181 -0.106635 32.0131 0.995032L46.3539 19.995C47.186 21.0967 46.9658 22.665 45.8636 23.4967C44.7614 24.3284 43.1922 24.1084 42.3601 23.0067L29.5219 5.99837L4.00373 25.165C3.5535 25.5034 3.02656 25.6667 2.50295 25.6667Z" fill="var(--fill-0, #0AD67E)"/>
<path id="Vector_2" d="M29.0166 24.3334C28.2462 24.3334 27.4858 23.9784 26.9956 23.3101L18.3161 11.4567C17.9909 11.0117 17.8325 10.4951 17.8325 9.98339C17.8325 9.21339 18.1877 8.45339 18.8564 7.96339C19.9719 7.14839 21.5361 7.39005 22.3515 8.50505L31.031 20.3584C31.3561 20.8034 31.5146 21.3201 31.5146 21.8317C31.5146 22.6017 31.1594 23.3617 30.4907 23.8517C30.0455 24.1784 29.5285 24.3351 29.0149 24.3351L29.0166 24.3334Z" fill="var(--fill-0, #0AD67E)"/>
</g>
</svg>
