<svg width="100" height="105" viewBox="0 0 100 105" fill="none" xmlns="http://www.w3.org/2000/svg">
<path d="M50 59C54.6944 59 58.5 55.1944 58.5 50.5C58.5 45.8056 54.6944 42 50 42C45.3056 42 41.5 45.8056 41.5 50.5C41.5 55.1944 45.3056 59 50 59Z" fill="white"/>
<path d="M94 47H88.2C86.5 28.7 71.9 14.1 53.6 12.4V6.5C53.6 4.5 52 3 50.1 3C48.2 3 46.5 4.6 46.5 6.5V12.3C28.2 14 13.6 28.6 11.9 46.9H6C4 46.9 2.5 48.5 2.5 50.4C2.5 52.4 4.1 53.9 6 53.9H11.8C13.5 72.2 28.1 86.8 46.4 88.5V94.5C46.4 96.5 48 98 49.9 98C51.8 98 53.4 96.4 53.4 94.5V88.7C71.7 87 86.3 72.4 88 54.1H94C96 54.1 97.5 52.5 97.5 50.6C97.5 48.5 95.9 47 94 47ZM81.1 47H72.8C71.3 37.1 63.5 29.3 53.6 27.8V19.5C68 21.1 79.4 32.5 81.1 47ZM50 66.5C41.2 66.5 34 59.3 34 50.5C34 41.7 41.2 34.5 50 34.5C58.8 34.5 66 41.7 66 50.5C66 59.3 58.8 66.5 50 66.5ZM46.5 19.4V27.7C36.6 29.2 28.8 37 27.3 46.9H19C20.6 32.5 32 21.1 46.5 19.4ZM18.9 54H27.2C28.7 63.9 36.5 71.7 46.4 73.2V81.5C32 79.9 20.6 68.5 18.9 54ZM53.5 81.6V73.3C63.4 71.8 71.2 64 72.7 54.1H81C79.4 68.5 68 79.9 53.5 81.6Z" fill="white"/>
</svg>
