<svg width="89" height="85" viewBox="0 0 89 85" fill="none" xmlns="http://www.w3.org/2000/svg">
<g clip-path="url(#clip0_43656_4876)">
<path d="M13.8981 3.5498C9.32374 3.5498 5.56519 7.3216 5.56519 11.8856V72.9302C5.56519 77.4943 9.32374 81.2498 13.8981 81.2498H75.0801C79.6545 81.2498 83.4348 77.4943 83.4348 72.9302V11.8856C83.4348 7.3216 79.6545 3.5498 75.0801 3.5498H13.8981ZM13.8981 9.0998H75.0801C76.6691 9.0998 77.8723 10.3003 77.8723 11.8856V50.3617L65.7369 40.2806C64.3234 39.2596 63.2751 39.3118 62.1028 40.3402L52.7269 48.6544L33.8123 32.0044C32.6101 30.933 31.3191 31.0415 30.1999 31.9392L11.1277 47.6136V11.8855C11.1277 10.3002 12.3091 9.0998 13.8981 9.0998ZM62.5754 14.6498C57.2322 14.6498 52.8464 19.0311 52.8464 24.3623C52.8464 29.6935 57.2322 34.0694 62.5754 34.0694C67.9186 34.0694 72.3098 29.6935 72.3098 24.3623C72.3098 19.0311 67.9186 14.6498 62.5754 14.6498ZM62.5754 20.2052C64.9124 20.2052 66.7473 22.0306 66.7473 24.3623C66.7473 26.6941 64.9124 28.5194 62.5754 28.5194C60.2384 28.5194 58.3872 26.6941 58.3872 24.3623C58.3872 22.0306 60.2384 20.2052 62.5754 20.2052ZM31.9219 37.717L75.0475 75.6944H13.8981C12.3091 75.6944 11.1277 74.5156 11.1277 72.9302V54.7952L31.9219 37.717ZM64.0149 46.0745L77.8723 57.5918V70.7948L56.9314 52.3562L64.0149 46.0745Z" fill="white"/>
</g>
<defs>
<clipPath id="clip0_43656_4876">
<rect width="89" height="85" fill="white"/>
</clipPath>
</defs>
</svg>
