<svg width="52" height="53" viewBox="0 0 52 53" fill="none" xmlns="http://www.w3.org/2000/svg">
<mask id="mask0_479_4797" style="mask-type:luminance" maskUnits="userSpaceOnUse" x="0" y="24" width="52" height="29">
<path d="M51.6933 24.8333H0V52.9999H51.6933V24.8333Z" fill="white"/>
</mask>
<g mask="url(#mask0_479_4797)">
<path d="M17.8426 42.6668C17.0705 42.6668 16.3385 42.3101 15.8649 41.6968L2.19119 24.0301C1.34575 22.9384 1.54586 21.3684 2.63975 20.5234C3.73198 19.6784 5.30446 19.8784 6.14823 20.9718L17.6975 35.8934L26.9373 22.1084C27.706 20.9618 29.2601 20.6551 30.4074 21.4234C31.5546 22.1918 31.8615 23.7451 31.0927 24.8918L19.9203 41.5584C19.4734 42.2268 18.7314 42.6384 17.9276 42.6651C17.8993 42.6651 17.8709 42.6651 17.8426 42.6651V42.6668Z" fill="#0AD67E"/>
<path d="M32.6836 42.6667C31.8832 42.6667 31.1295 42.2834 30.6592 41.635L23.1554 31.3017C22.3433 30.185 22.5917 28.6217 23.7107 27.81C24.8279 26.9984 26.392 27.2467 27.2041 28.365L32.6786 35.9034L43.6626 20.7034C44.4713 19.5834 46.0355 19.3317 47.1544 20.14C48.275 20.9484 48.5268 22.5117 47.718 23.63L34.7113 41.63C34.2411 42.28 33.489 42.665 32.6869 42.6667H32.6836Z" fill="#0AD67E"/>
</g>
<mask id="mask1_479_4797" style="mask-type:luminance" maskUnits="userSpaceOnUse" x="0" y="0" width="52" height="23">
<path d="M51.6933 0H0V22.5H51.6933V0Z" fill="white"/>
</mask>
<g mask="url(#mask1_479_4797)">
<path d="M3.0032 27.6667C2.24281 27.6667 1.49242 27.3217 1.00217 26.6683C0.171742 25.565 0.39519 23.9967 1.49909 23.1683L29.0133 2.50167C30.1155 1.67334 31.6813 1.89334 32.5134 2.995L46.8541 21.995C47.6862 23.0967 47.4661 24.665 46.3639 25.4967C45.2616 26.3283 43.6925 26.1083 42.8604 25.0067L30.0221 7.99834L4.50397 27.165C4.05374 27.5033 3.5268 27.6667 3.0032 27.6667Z" fill="#0AD67E"/>
<path d="M29.5169 26.3335C28.7465 26.3335 27.9861 25.9785 27.4958 25.3102L18.8163 13.4568C18.4912 13.0118 18.3328 12.4952 18.3328 11.9835C18.3328 11.2135 18.6879 10.4535 19.3566 9.96349C20.4722 9.14849 22.0363 9.39016 22.8518 10.5052L31.5312 22.3585C31.8564 22.8035 32.0148 23.3202 32.0148 23.8318C32.0148 24.6018 31.6596 25.3618 30.9909 25.8518C30.5457 26.1785 30.0288 26.3352 29.5152 26.3352L29.5169 26.3335Z" fill="#0AD67E"/>
</g>
</svg>
